<?xml version="1.0" encoding="UTF-8"?>
<svg id="Layer_1" data-name="Layer 1" xmlns="http://www.w3.org/2000/svg" viewBox="0 0 1462.98 444.15">
  <defs>
    <style>
      .cls-1 {
        fill: #282828;
      }

      .cls-1, .cls-2 {
        stroke-width: 0px;
      }

      .cls-3 {
        letter-spacing: 0em;
      }

      .cls-4 {
        fill: none;
        stroke: #fff;
        stroke-miterlimit: 10;
        stroke-width: 4px;
      }

      .cls-2 {
        fill: #f3f3f3;
      }

      .cls-5 {
        font-family: ZohoPuvi-Regular, 'Zoho Puvi';
        font-size: 94px;
      }

      .cls-5, .cls-6 {
        fill: #fff;
      }

      .cls-6 {
        font-family: ZohoPuvi-Bold, 'Zoho Puvi';
        font-size: 120px;
        font-weight: 700;
      }
    </style>
  </defs>
  <path class="cls-2" d="M82,2.08h822.2v440H82c-44.15,0-80-35.85-80-80V82.08C2,37.92,37.85,2.08,82,2.08Z"/>
  <path class="cls-1" d="M904.2,2.08h476.77c44.15,0,80,35.85,80,80v280c0,44.15-35.85,80-80,80h-476.77V2.08h0Z"/>
  <g>
    <g>
      <path class="cls-1" d="M415.7,308.31c-5.2,0-10.47-1.06-15.52-3.31h0l-107.8-48.04c-19.26-8.59-27.95-31.24-19.37-50.51l48.04-107.8c8.59-19.26,31.24-27.95,50.51-19.37l107.8,48.04c19.26,8.59,27.95,31.24,19.37,50.51l-48.04,107.8c-6.34,14.22-20.35,22.68-34.99,22.68ZM409.18,284.81c8.13,3.62,17.7-.04,21.33-8.18l48.04-107.8c3.63-8.13-.04-17.7-8.18-21.33l-107.8-48.04c-8.13-3.62-17.7.04-21.33,8.18l-48.04,107.8c-3.63,8.13.04,17.7,8.18,21.33l107.8,48.04Z"/>
      <path class="cls-1" d="M753.75,308.33h-118.02c-21.09,0-38.25-17.16-38.25-38.25v-118.02c0-21.09,17.16-38.25,38.25-38.25h118.02c21.09,0,38.25,17.16,38.25,38.25v118.02c0,21.09-17.16,38.25-38.25,38.25ZM635.73,135.91c-8.91,0-16.15,7.24-16.15,16.15v118.02c0,8.91,7.24,16.15,16.15,16.15h118.02c8.91,0,16.15-7.24,16.15-16.15v-118.02c0-8.91-7.24-16.15-16.15-16.15h-118.02Z"/>
      <path class="cls-1" d="M311.81,173.68l-15.87,35.62c-.17.38-.38.73-.58,1.08l6.19,38.27c1.42,8.79-4.57,17.1-13.36,18.52l-116.51,18.83c-4.26.69-8.53-.32-12.03-2.85-3.5-2.52-5.8-6.26-6.49-10.52l-18.83-116.51c-.69-4.26.32-8.53,2.85-12.03,2.52-3.5,6.26-5.8,10.52-6.49l116.51-18.83c.87-.14,1.73-.21,2.59-.21,7.78,0,14.65,5.65,15.93,13.57l6.23,38.56,16.43-36.86-.84-5.22c-3.37-20.82-23.05-35.02-43.86-31.66l-116.51,18.83c-10.09,1.63-18.93,7.09-24.91,15.37-5.98,8.28-8.37,18.4-6.74,28.49l18.83,116.51c1.63,10.09,7.09,18.93,15.38,24.91,6.59,4.76,14.33,7.24,22.3,7.24,2.05,0,4.12-.16,6.18-.5l116.51-18.83c20.82-3.37,35.02-23.04,31.66-43.86l-11.55-71.45Z"/>
      <g>
        <path class="cls-1" d="M451.57,229.35l17.09-38.34-4.85-35.64c-.58-4.27.54-8.52,3.15-11.95,2.61-3.43,6.4-5.64,10.68-6.23l116.94-15.91c.74-.1,1.48-.15,2.21-.15,3.51,0,6.9,1.14,9.74,3.3.53.4,1.02.85,1.49,1.3,5.19-5.46,11.97-9.39,19.6-11.05-2.15-2.94-4.74-5.58-7.71-7.85-8.13-6.18-18.18-8.83-28.31-7.45l-116.94,15.91c-10.12,1.38-19.1,6.61-25.29,14.75-6.18,8.13-8.83,18.19-7.45,28.31l9.66,71Z"/>
        <path class="cls-1" d="M650.57,249.07l-15.39-113.13c-8.65.3-15.59,7.41-15.59,16.13v33.2l9.09,66.79c.58,4.27-.54,8.52-3.15,11.95-2.61,3.43-6.4,5.65-10.68,6.23l-116.94,15.91c-4.27.58-8.52-.54-11.95-3.15-3.43-2.61-5.64-6.4-6.23-10.68l-5.4-39.7-17.09,38.34.59,4.34c1.38,10.12,6.61,19.11,14.75,25.29,6.73,5.12,14.77,7.81,23.08,7.81,1.73,0,3.48-.12,5.23-.36l116.94-15.91c10.12-1.38,19.1-6.61,25.29-14.75,6.18-8.13,8.83-18.19,7.45-28.31Z"/>
      </g>
    </g>
    <g>
      <path class="cls-1" d="M320.65,364.3l16.71-24.64h-13.77c-.75,0-1.36-.61-1.36-1.36v-3.32c0-.75.61-1.36,1.36-1.36h22.59c.75,0,1.36.61,1.36,1.36v1.25c0,.27-.08.53-.23.75l-16.37,24.62h14.68c.75,0,1.36.61,1.36,1.36v3.32c0,.75-.61,1.36-1.36,1.36h-23.85c-.75,0-1.36-.61-1.36-1.36v-1.22c0-.27.08-.54.23-.76Z"/>
      <path class="cls-1" d="M391,350.47c0-10.13,7.44-17.39,17.52-17.39s17.5,7.11,17.5,17.48-7.18,17.62-17.64,17.62-17.39-7.21-17.39-17.71ZM417.98,350.59c0-6.11-2.97-11.41-9.62-11.41s-9.32,5.46-9.32,11.62,3.18,11.23,9.65,11.23,9.3-5.69,9.3-11.44Z"/>
      <path class="cls-1" d="M473.91,333.62h5c.75,0,1.36.61,1.36,1.36v12.54h14.13v-12.54c0-.75.61-1.36,1.36-1.36h5c.75,0,1.36.61,1.36,1.36v31.31c0,.75-.61,1.36-1.36,1.36h-5c-.75,0-1.36-.61-1.36-1.36v-12.68h-14.13v12.68c0,.75-.61,1.36-1.36,1.36h-5c-.75,0-1.36-.61-1.36-1.36v-31.31c0-.75.61-1.36,1.36-1.36Z"/>
      <path class="cls-1" d="M548.57,350.47c0-10.13,7.44-17.39,17.52-17.39s17.5,7.11,17.5,17.48-7.18,17.62-17.64,17.62-17.39-7.21-17.39-17.71ZM575.55,350.59c0-6.11-2.97-11.41-9.62-11.41s-9.32,5.46-9.32,11.62,3.18,11.23,9.65,11.23,9.3-5.69,9.3-11.44Z"/>
    </g>
  </g>
  <g>
    <text class="cls-6" transform="translate(1014.64 212.13)"><tspan class="cls-3" x="0" y="0">Z</tspan><tspan x="71.78" y="0">oho</tspan></text>
    <text class="cls-5" transform="translate(1014.64 314.27)"><tspan x="0" y="0">Affiliate</tspan></text>
  </g>
  <path class="cls-4" d="M1383.17,442.08H84.2c-46.38,0-82.2-35.82-82.2-80V82.08C2,37.89,37.82,2.08,84.2,2.08h1298.97c41.98,0,77.8,35.82,77.8,80v280c0,44.18-35.82,80-77.8,80Z"/>
</svg>